<svg xmlns="http://www.w3.org/2000/svg" viewBox="0 0 16.087 16.087" width="512" height="512"><g fill="#fdab6f"><path d="M6.5 3.478c-3.59 0-6.5 2.238-6.5 5 0 1.354.7 2.585 1.84 3.485-.067.918-.288 2.04-.928 2.646 1.274 0 2.576-.8 3.4-1.423a8.26 8.26 0 0 0 2.188.29c3.59 0 6.5-2.236 6.5-5 0-2.76-2.91-5-6.5-5z"/><path d="M15.14 8.965c.547-.73.86-1.58.86-2.487 0-2.762-2.91-5-6.5-5-1.58 0-3.028.434-4.154 1.154.53-.1 1.084-.154 1.654-.154 3.866 0 7 2.463 7 5.5 0 1.197-.485 2.306-1.312 3.207.82.624 2.125 1.424 3.4 1.424-.907-.86-.972-2.767-.948-3.645z"/></g></svg>