<svg xmlns="http://www.w3.org/2000/svg" viewBox="0 0 129.04581 79.904999" height="302.003" width="487.732"><path d="M55.57 74.97C46.266 68.34 28.376 52.758 28.376 51.29c0-.654 1.155-5.284 2.568-10.288 1.412-5.004 3.297-12.48 4.188-16.615 1.612-7.477 1.648-7.516 6.85-7.516h5.23l-3.338 5.21c-3.808 5.946-4.36 13.582-1.184 16.375 3.33 2.926 10.85 2.324 14.364-1.15 6.698-6.625 8.992-5.946 23.725 7.013C94.3 56.213 98.826 61.802 97.674 65.188c-1.14 3.346-3.835 1.802-11.87-6.8C78.07 50.105 74.32 47.87 74.32 51.544c0 .962 3.417 5.408 7.594 9.88 7.286 7.8 8.37 11.28 3.513 11.28-1.235 0-5.754-3.68-10.042-8.175-6.126-6.422-8.15-7.8-9.44-6.43-1.294 1.368-.104 3.397 5.552 9.465 6.917 7.42 7.91 10.866 3.127 10.866-1.23 0-5.144-3.03-8.695-6.737-5.035-5.254-6.816-6.358-8.085-5.014-1.27 1.344-.675 2.764 2.694 6.447 7.537 8.24 5.21 9.103-4.97 1.844zm53.485-13.3c-.346-.625-2.89-8.187-5.654-16.806-2.764-8.62-6.514-19.236-8.333-23.593-3.058-7.326-3.136-8.054-1.04-9.678 3.196-2.475 14.445-4.73 25.56-5.125l9.46-.336v55.836l-9.683.42c-5.325.23-9.964-.094-10.31-.717zM.9 56C.406 55.477 0 42.894 0 28.04 0 5.236.32.9 2.046.2c2.89-1.176 26.01 3.15 28.488 5.33 2.53 2.225 1.9 7.3-3.635 29.235-5.95 23.577-4.96 22.19-15.836 22.19-5.094 0-9.668-.43-10.163-.954zm84.23-16.416c-8.547-7.76-16.226-14.113-17.064-14.117-2.72-.014-10.806 4.062-12.6 6.352-1.95 2.49-9.523 3.07-9.523.726 0-3.214 4.123-9.684 9.375-14.71 6.833-6.54 12.938-6.83 25.624-1.216l8.65 3.828 5.92 16.3c3.256 8.963 5.748 16.443 5.54 16.622-.21.178-7.376-6.025-15.922-13.786z" fill="#e8a971"/></svg>