<svg xmlns="http://www.w3.org/2000/svg" viewBox="0 0 68.283472 70.854072" height="267.795" width="258.079"><path d="M18.5 68.51c0-2.476 1.56-3.53 5.227-3.53 1.386 0 2.453-.73 2.823-1.933.326-1.063 1.635-2.78 2.908-3.813 2.282-1.854 2.313-2.094 2.284-17.405-.023-11.94-.345-15.955-1.392-17.383-1.93-2.636-.972-3.528 3.792-3.528 4.764 0 5.723.89 3.792 3.527-1.047 1.428-1.37 5.442-1.392 17.382-.03 15.31.002 15.55 2.284 17.404 1.273 1.034 2.582 2.75 2.908 3.813.37 1.202 1.437 1.932 2.823 1.932 3.666 0 5.228 1.054 5.228 3.53v2.344H18.5zM7.55 51.854c-1.59-.715-4.088-2.77-5.55-4.564-2.452-3.01-2.522-3.314-.9-3.898 1.196-.432 3.16-4.505 6.16-12.777C9.685 23.935 12.2 18.47 12.85 18.47c.65 0 3.18 5.477 5.625 12.17 2.904 7.95 5.027 12.378 6.126 12.776 1.51.548 1.413.94-.98 3.876-4.46 5.475-10.334 7.14-16.07 4.56zM17.86 36.83c-1.347-3.635-2.892-8.04-3.434-9.79-1.242-4.013-1.988-4.013-3.23 0-.542 1.75-2.087 6.155-3.435 9.79l-2.448 6.61H20.31zm32.352 15.023c-1.59-.715-4.088-2.77-5.55-4.564-2.39-2.936-2.49-3.326-.977-3.874 1.1-.398 3.222-4.827 6.126-12.777 2.445-6.693 4.976-12.17 5.626-12.17.65 0 3.164 5.466 5.587 12.145 3 8.272 4.965 12.345 6.162 12.777 1.62.584 1.55.888-.904 3.9-4.46 5.475-10.332 7.14-16.068 4.56zm10.31-15.023c-1.347-3.635-2.892-8.04-3.434-9.79-1.242-4.013-1.988-4.013-3.23 0-.542 1.75-2.087 6.155-3.435 9.79l-2.45 6.61h15zm-30.08-20.968c-.833-1.228-1.514-2.787-1.514-3.464 0-3.405-10.01-1.733-14.488 2.42-1.548 1.434-1.817 1.432-3.236-.034-1.3-1.342-1.346-1.85-.293-3.162.692-.86 1.792-1.35 2.447-1.09.654.26 3.418-.404 6.143-1.473 3.96-1.555 5.524-1.74 7.806-.917 4.04 1.454 4.677 1.297 3.977-.98-.37-1.207.035-3.032 1.02-4.584L33.94 0l1.818 2.32c1.17 1.492 1.622 3.13 1.268 4.585-.618 2.546-.117 2.703 3.952 1.238 2.282-.822 3.846-.638 7.806.916 2.725 1.068 5.49 1.73 6.143 1.47.655-.258 1.755.233 2.446 1.092 1.053 1.31 1.006 1.82-.293 3.162-1.42 1.466-1.688 1.468-3.237.033-2.64-2.45-9.525-4.94-11.88-4.298-1.173.32-2.773 2.02-3.555 3.777-1.824 4.098-5.728 4.865-7.967 1.565z" fill="#d8a873"/></svg>